<svg width="393" height="849" viewBox="0 0 393 849" fill="none" xmlns="http://www.w3.org/2000/svg">
<rect width="393" height="849" fill="url(#paint0_linear_51_185)"/>
<path d="M0 680H393V849H0V680Z" fill="#CFE6EE"/>
<path d="M0 713L393 701V849H0V713Z" fill="#E7D3C8"/>
<path fill-rule="evenodd" clip-rule="evenodd" d="M103.163 689.792C102.864 681.94 105.635 669.908 105.635 669.908L257.716 663.37C257.716 663.37 265.499 674.427 265.87 682.798C266.206 690.398 260.676 701.278 260.676 701.278L248.659 701.595C248.85 700.559 248.928 699.486 248.881 698.389C248.543 690.526 241.895 684.426 234.032 684.764C226.169 685.102 220.069 691.75 220.407 699.613C220.447 700.546 220.576 701.455 220.786 702.331L153.947 704.096C153.984 703.56 153.992 703.018 153.968 702.469C153.63 694.606 146.982 688.506 139.12 688.844C131.257 689.182 125.157 695.83 125.495 703.693C125.511 704.081 125.544 704.465 125.59 704.844L123.108 704.91L105.841 705.652C105.841 705.652 103.403 696.084 103.163 689.792Z" fill="#323232"/>
<path fill-rule="evenodd" clip-rule="evenodd" d="M102.395 687.706C102.132 680.695 105.027 669.934 105.027 669.934L260.276 663.26C260.276 663.26 268.159 673.092 268.491 680.566C268.793 687.352 263.089 697.099 263.089 697.099L248.816 697.505C248.039 690.074 241.598 684.439 234.032 684.764C226.606 685.083 220.753 691.031 220.41 698.314L153.693 700.214C152.317 693.473 146.213 688.539 139.12 688.844C132.169 689.143 126.596 694.373 125.63 701.013L122.667 701.098L105.04 701.856C105.04 701.856 102.605 693.324 102.395 687.706Z" fill="#D32E36"/>
<path d="M105.027 669.934L105.005 669.434L104.639 669.45L104.544 669.804L105.027 669.934ZM102.395 687.706L101.895 687.725L102.395 687.706ZM260.276 663.26L260.666 662.947L260.508 662.75L260.255 662.76L260.276 663.26ZM268.491 680.566L268.991 680.544L268.991 680.544L268.491 680.566ZM263.089 697.099L263.103 697.599L263.381 697.591L263.521 697.351L263.089 697.099ZM248.816 697.505L248.319 697.557L248.367 698.018L248.83 698.005L248.816 697.505ZM220.41 698.314L220.424 698.814L220.887 698.801L220.909 698.338L220.41 698.314ZM153.693 700.214L153.203 700.314L153.287 700.726L153.707 700.714L153.693 700.214ZM125.63 701.013L125.644 701.513L126.064 701.501L126.125 701.085L125.63 701.013ZM122.667 701.098L122.653 700.598L122.646 700.598L122.667 701.098ZM105.04 701.856L104.56 701.993L104.668 702.372L105.062 702.355L105.04 701.856ZM105.027 669.934C104.544 669.804 104.544 669.804 104.544 669.804C104.544 669.804 104.544 669.804 104.544 669.805C104.543 669.805 104.543 669.806 104.543 669.806C104.543 669.808 104.542 669.81 104.541 669.813C104.54 669.818 104.538 669.826 104.535 669.837C104.529 669.858 104.521 669.889 104.51 669.929C104.489 670.011 104.458 670.131 104.418 670.286C104.339 670.596 104.226 671.047 104.092 671.609C103.824 672.732 103.468 674.304 103.121 676.096C102.429 679.669 101.761 684.159 101.895 687.725L102.894 687.687C102.765 684.242 103.414 679.846 104.103 676.286C104.447 674.511 104.799 672.954 105.065 671.841C105.198 671.285 105.309 670.839 105.387 670.534C105.426 670.381 105.457 670.263 105.478 670.183C105.488 670.144 105.496 670.113 105.501 670.093C105.504 670.083 105.506 670.076 105.507 670.071C105.508 670.068 105.509 670.067 105.509 670.065C105.509 670.065 105.509 670.064 105.509 670.064C105.509 670.064 105.509 670.064 105.509 670.064C105.509 670.064 105.509 670.064 105.027 669.934ZM260.255 662.76L105.005 669.434L105.048 670.433L260.298 663.76L260.255 662.76ZM268.991 680.544C268.819 676.674 266.706 672.256 264.689 668.855C263.674 667.144 262.67 665.669 261.919 664.622C261.544 664.098 261.232 663.681 261.013 663.394C260.904 663.25 260.817 663.139 260.758 663.064C260.729 663.026 260.706 662.997 260.691 662.978C260.683 662.968 260.677 662.961 260.673 662.955C260.671 662.953 260.669 662.951 260.668 662.95C260.667 662.949 260.667 662.948 260.667 662.948C260.667 662.948 260.666 662.948 260.666 662.947C260.666 662.947 260.666 662.947 260.276 663.26C259.886 663.573 259.886 663.573 259.886 663.573C259.886 663.573 259.886 663.573 259.886 663.573C259.886 663.573 259.887 663.573 259.887 663.574C259.888 663.575 259.889 663.577 259.891 663.579C259.894 663.583 259.9 663.59 259.907 663.599C259.921 663.617 259.943 663.644 259.971 663.68C260.028 663.753 260.111 663.86 260.218 664C260.431 664.28 260.738 664.689 261.106 665.204C261.845 666.234 262.832 667.685 263.829 669.365C265.836 672.749 267.831 676.984 267.992 680.588L268.991 680.544ZM263.089 697.099C263.521 697.351 263.521 697.351 263.521 697.351C263.521 697.351 263.521 697.351 263.521 697.351C263.521 697.35 263.522 697.35 263.522 697.349C263.523 697.348 263.524 697.346 263.525 697.343C263.528 697.338 263.533 697.331 263.538 697.321C263.55 697.302 263.566 697.273 263.587 697.236C263.63 697.161 263.692 697.051 263.771 696.91C263.928 696.626 264.152 696.215 264.419 695.7C264.954 694.672 265.663 693.229 266.364 691.572C267.756 688.277 269.147 684.056 268.991 680.544L267.992 680.588C268.137 683.862 266.827 687.907 265.443 691.182C264.755 692.81 264.058 694.228 263.532 695.239C263.269 695.745 263.05 696.148 262.896 696.424C262.82 696.562 262.76 696.669 262.719 696.74C262.698 696.776 262.683 696.803 262.673 696.821C262.667 696.829 262.664 696.836 262.661 696.84C262.66 696.843 262.659 696.844 262.658 696.845C262.658 696.846 262.658 696.846 262.658 696.846C262.658 696.846 262.658 696.846 262.658 696.846C262.658 696.846 262.658 696.846 263.089 697.099ZM248.83 698.005L263.103 697.599L263.075 696.599L248.802 697.006L248.83 698.005ZM234.054 685.264C241.354 684.95 247.569 690.388 248.319 697.557L249.313 697.453C248.509 689.761 241.842 683.928 234.011 684.265L234.054 685.264ZM220.909 698.338C221.24 691.31 226.889 685.572 234.054 685.264L234.011 684.265C226.324 684.595 220.265 690.751 219.91 698.291L220.909 698.338ZM153.707 700.714L220.424 698.814L220.396 697.815L153.678 699.715L153.707 700.714ZM139.141 689.344C145.985 689.05 151.875 693.81 153.203 700.314L154.182 700.114C152.758 693.136 146.44 688.029 139.098 688.345L139.141 689.344ZM126.125 701.085C127.057 694.678 132.435 689.632 139.141 689.344L139.098 688.345C131.903 688.654 126.135 694.067 125.135 700.941L126.125 701.085ZM122.681 701.598L125.644 701.513L125.616 700.514L122.653 700.598L122.681 701.598ZM105.062 702.355L122.688 701.597L122.646 700.598L105.019 701.356L105.062 702.355ZM101.895 687.725C102.002 690.582 102.672 694.156 103.308 696.997C103.628 698.421 103.94 699.669 104.173 700.561C104.289 701.007 104.386 701.364 104.453 701.61C104.487 701.733 104.513 701.829 104.532 701.893C104.541 701.926 104.548 701.95 104.552 701.967C104.555 701.975 104.556 701.982 104.558 701.986C104.558 701.988 104.559 701.99 104.559 701.991C104.559 701.992 104.559 701.992 104.559 701.992C104.56 701.992 104.56 701.993 104.56 701.993C104.56 701.993 104.56 701.993 105.04 701.856C105.521 701.718 105.521 701.718 105.521 701.718C105.521 701.718 105.521 701.718 105.521 701.718C105.521 701.718 105.521 701.718 105.521 701.717C105.521 701.716 105.52 701.715 105.52 701.713C105.518 701.709 105.517 701.703 105.515 701.695C105.51 701.679 105.503 701.655 105.494 701.624C105.477 701.56 105.451 701.467 105.418 701.346C105.351 701.103 105.256 700.75 105.14 700.308C104.91 699.425 104.6 698.189 104.284 696.778C103.65 693.948 102.998 690.448 102.894 687.687L101.895 687.725Z" fill="black"/>
<circle cx="12.5" cy="12.5" r="12.5" transform="matrix(-0.999077 0.0429485 0.0429485 0.999077 151.786 689.944)" fill="#0E1118"/>
<circle cx="4.16667" cy="4.16667" r="4.16667" transform="matrix(-0.999077 0.0429485 0.0429485 0.999077 143.818 698.628)" fill="#DA6D72"/>
<path fill-rule="evenodd" clip-rule="evenodd" d="M140.198 711.429C135.526 711.63 131.575 708.005 131.374 703.333C131.173 698.661 134.798 694.71 139.47 694.509C144.143 694.309 148.093 697.933 148.294 702.606C148.495 707.278 144.87 711.228 140.198 711.429ZM140.066 709.075C136.78 709.217 134.001 706.667 133.86 703.381C133.719 700.095 136.268 697.317 139.554 697.176C142.84 697.035 145.619 699.584 145.76 702.87C145.901 706.156 143.352 708.934 140.066 709.075Z" fill="white"/>
<circle cx="12.5" cy="12.5" r="12.5" transform="matrix(-0.999077 0.0429485 0.0429485 0.999077 246.698 685.864)" fill="#0E1118"/>
<circle cx="4.16667" cy="4.16667" r="4.16667" transform="matrix(-0.999077 0.0429485 0.0429485 0.999077 238.73 694.548)" fill="#DA6D72"/>
<path fill-rule="evenodd" clip-rule="evenodd" d="M235.11 707.349C230.438 707.55 226.487 703.925 226.286 699.253C226.085 694.581 229.71 690.63 234.383 690.429C239.055 690.228 243.005 693.853 243.206 698.526C243.407 703.198 239.782 707.148 235.11 707.349ZM234.978 704.995C231.692 705.137 228.914 702.587 228.772 699.301C228.631 696.015 231.18 693.237 234.466 693.096C237.752 692.954 240.531 695.504 240.672 698.79C240.813 702.076 238.264 704.854 234.978 704.995Z" fill="white"/>
<path d="M113.639 664.058L118.511 649.336L150.503 648.461L151.104 662.448L113.639 664.058Z" fill="#D9D9D9" fill-opacity="0.3"/>
<path d="M245.018 658.411L238.9 644.16L206.951 646.034L207.552 660.021L245.018 658.411Z" fill="#D9D9D9" fill-opacity="0.3"/>
<path d="M161.595 661.997L160.993 648.01L198.459 646.399L199.06 660.387L161.595 661.997Z" fill="#D9D9D9" fill-opacity="0.3"/>
<path fill-rule="evenodd" clip-rule="evenodd" d="M105.539 668.532C105.298 669.201 105.812 669.9 106.523 669.87L258.846 663.321C259.53 663.292 259.983 662.599 259.735 661.96L250.37 637.84C250.215 637.441 249.822 637.185 249.394 637.203L115.406 642.963C115 642.981 114.646 643.242 114.508 643.624L105.539 668.532ZM119.213 649.317C118.792 649.328 118.423 649.602 118.291 650.002L114.094 662.683C113.874 663.347 114.387 664.026 115.086 663.996L150.105 662.491C150.657 662.467 151.085 662.001 151.061 661.449L150.545 649.445C150.522 648.899 150.065 648.473 149.519 648.488L119.213 649.317ZM243.57 658.473C244.269 658.443 244.722 657.723 244.446 657.08L239.177 644.805C239.011 644.418 238.62 644.177 238.199 644.202L207.934 645.977C207.389 646.009 206.97 646.472 206.993 647.018L207.509 659.022C207.533 659.574 208 660.002 208.551 659.978L243.57 658.473ZM161.992 647.967C161.441 647.991 161.013 648.457 161.036 649.009L161.552 660.998C161.575 661.55 162.042 661.978 162.594 661.954L198.061 660.429C198.613 660.406 199.041 659.939 199.017 659.387L198.502 647.398C198.478 646.847 198.011 646.419 197.46 646.442L161.992 647.967Z" fill="#F5EDEB"/>
<path d="M198.502 647.398L199.001 647.377L198.502 647.398ZM199.017 659.387L198.518 659.409L199.017 659.387ZM207.934 645.977L207.904 645.478L207.934 645.977ZM244.446 657.08L244.906 656.882L244.446 657.08ZM239.177 644.805L238.717 645.003L239.177 644.805ZM238.199 644.202L238.17 643.702L238.199 644.202ZM119.213 649.317L119.199 648.817L119.213 649.317ZM114.094 662.683L113.619 662.526L114.094 662.683ZM114.508 643.624L114.038 643.454L114.508 643.624ZM250.37 637.84L250.836 637.659L250.37 637.84ZM105.539 668.532L105.069 668.362L105.539 668.532ZM259.735 661.96L259.269 662.141L259.735 661.96ZM258.824 662.822L106.501 669.37L106.544 670.369L258.867 663.821L258.824 662.822ZM249.904 638.021L259.269 662.141L260.201 661.779L250.836 637.659L249.904 638.021ZM115.427 643.463L249.416 637.703L249.373 636.704L115.384 642.464L115.427 643.463ZM106.009 668.701L114.978 643.793L114.038 643.454L105.069 668.362L106.009 668.701ZM114.569 662.84L118.765 650.159L117.816 649.845L113.619 662.526L114.569 662.84ZM150.084 661.991L115.065 663.497L115.108 664.496L150.127 662.99L150.084 661.991ZM150.046 649.466L150.562 661.47L151.561 661.427L151.045 649.423L150.046 649.466ZM119.226 649.816L149.533 648.988L149.505 647.988L119.199 648.817L119.226 649.816ZM238.717 645.003L243.987 657.277L244.906 656.882L239.636 644.608L238.717 645.003ZM207.963 646.476L238.229 644.701L238.17 643.702L207.904 645.478L207.963 646.476ZM208.009 659.001L207.493 646.996L206.494 647.039L207.01 659.044L208.009 659.001ZM243.549 657.974L208.53 659.479L208.573 660.478L243.592 658.973L243.549 657.974ZM162.051 660.976L161.536 648.988L160.537 649.031L161.052 661.019L162.051 660.976ZM198.04 659.93L162.572 661.455L162.615 662.454L198.082 660.929L198.04 659.93ZM198.002 647.42L198.518 659.409L199.517 659.366L199.001 647.377L198.002 647.42ZM162.014 648.467L197.481 646.942L197.438 645.943L161.971 647.467L162.014 648.467ZM199.001 647.377C198.966 646.549 198.266 645.907 197.438 645.943L197.481 646.942C197.757 646.93 197.99 647.144 198.002 647.42L199.001 647.377ZM198.082 660.929C198.91 660.893 199.552 660.194 199.517 659.366L198.518 659.409C198.529 659.685 198.315 659.918 198.04 659.93L198.082 660.929ZM161.536 648.988C161.524 648.712 161.738 648.478 162.014 648.467L161.971 647.467C161.143 647.503 160.501 648.203 160.537 649.031L161.536 648.988ZM161.052 661.019C161.088 661.847 161.788 662.489 162.615 662.454L162.572 661.455C162.296 661.466 162.063 661.252 162.051 660.976L161.052 661.019ZM207.01 659.044C207.045 659.871 207.745 660.514 208.573 660.478L208.53 659.479C208.254 659.491 208.021 659.277 208.009 659.001L207.01 659.044ZM207.904 645.478C207.087 645.526 206.459 646.221 206.494 647.039L207.493 646.996C207.481 646.724 207.69 646.492 207.963 646.476L207.904 645.478ZM243.987 657.277C244.125 657.598 243.898 657.959 243.549 657.974L243.592 658.973C244.64 658.928 245.32 657.847 244.906 656.882L243.987 657.277ZM239.636 644.608C239.387 644.028 238.801 643.665 238.17 643.702L238.229 644.701C238.439 644.688 238.634 644.809 238.717 645.003L239.636 644.608ZM151.045 649.423C151.01 648.605 150.324 647.966 149.505 647.988L149.533 648.988C149.806 648.98 150.034 649.193 150.046 649.466L151.045 649.423ZM150.127 662.99C150.954 662.955 151.597 662.255 151.561 661.427L150.562 661.47C150.574 661.746 150.36 661.98 150.084 661.991L150.127 662.99ZM118.765 650.159C118.832 649.959 119.016 649.822 119.226 649.816L119.199 648.817C118.567 648.834 118.014 649.245 117.816 649.845L118.765 650.159ZM113.619 662.526C113.29 663.523 114.059 664.541 115.108 664.496L115.065 663.497C114.715 663.512 114.459 663.172 114.569 662.84L113.619 662.526ZM115.384 642.464C114.776 642.49 114.244 642.881 114.038 643.454L114.978 643.793C115.047 643.602 115.225 643.471 115.427 643.463L115.384 642.464ZM250.836 637.659C250.603 637.06 250.015 636.676 249.373 636.704L249.416 637.703C249.63 637.694 249.826 637.822 249.904 638.021L250.836 637.659ZM106.501 669.37C106.146 669.385 105.889 669.036 106.009 668.701L105.069 668.362C104.707 669.366 105.479 670.415 106.544 670.369L106.501 669.37ZM258.867 663.821C259.894 663.777 260.573 662.737 260.201 661.779L259.269 662.141C259.393 662.461 259.166 662.807 258.824 662.822L258.867 663.821Z" fill="black"/>
<defs>
<linearGradient id="paint0_linear_51_185" x1="196.5" y1="0" x2="196.5" y2="849" gradientUnits="userSpaceOnUse">
<stop offset="1" stop-color="#DCF1F4"/>
<stop offset="1" stop-color="#E0F2F6"/>
<stop offset="1" stop-color="#F3FAFC"/>
</linearGradient>
</defs>
</svg>
